<?xml version="1.0" encoding="UTF-8"?>
<svg xmlns="http://www.w3.org/2000/svg" version="1.1" viewBox="0 0 16 12.2">
  <defs>
    <style>
      .cls-1 {
        fill: #f97316;
      }
    </style>
  </defs>
  <g>
    <g id="Camada_2">
      <g id="Camada_1-2">
        <path class="cls-1" d="M13.6,1c-1.1-.5-2.2-.8-3.3-1-.2.3-.3.6-.4.9-1.2-.2-2.4-.2-3.7,0-.1-.3-.3-.6-.4-.9h0c-1.1.2-2.2.5-3.3,1C.6,3.7-.3,6.9,0,10.1h0c1.2.9,2.6,1.6,4,2h0c.3-.4.6-.9.8-1.4,0,0,0,0,0,0-.4-.2-.9-.4-1.3-.6,0,0,0,0,0,0,0,0,.2-.1.3-.2h0c2.6,1.2,5.5,1.2,8.1,0h0c0,0,.2.1.3.2,0,0,0,0,0,0-.4.2-.8.4-1.3.6,0,0,0,0,0,0,.2.5.5.9.9,1.3h0c1.4-.4,2.8-1.1,4-2h0c.3-3.3-.5-6.5-2.4-9.2h0ZM5.3,8.3c-.8,0-1.4-.7-1.4-1.6s.6-1.6,1.4-1.6,1.5.7,1.4,1.6c0,.9-.6,1.6-1.4,1.6ZM10.7,8.3c-.8,0-1.4-.7-1.4-1.6s.6-1.6,1.4-1.6,1.4.7,1.4,1.6c0,.9-.6,1.6-1.4,1.6Z"/>
      </g>
    </g>
  </g>
</svg>